<?xml version="1.0" encoding="utf-8"?>
<!-- Generator: Adobe Illustrator 27.0.0, SVG Export Plug-In . SVG Version: 6.00 Build 0)  -->
<svg version="1.1" id="Layer_1" xmlns="http://www.w3.org/2000/svg" xmlns:xlink="http://www.w3.org/1999/xlink" x="0px" y="0px"
	 viewBox="0 0 14400 14400" style="enable-background:new 0 0 14400 14400;" xml:space="preserve">
<style type="text/css">
	.st0{fill:#181F29;stroke:#000000;stroke-miterlimit:10;}
	.st1{enable-background:new    ;}
	.st2{fill:#263142;}
</style>
<rect x="5151.5" y="5643.5" class="st0" width="4096" height="3112"/>
<g id="muvee_00000036953909394977595530000007321621271787447425_">
	<g class="st1">
		<path class="st2" d="M7184.4,7175.8h-54.9v-101.5c0-26-9.6-38.8-28.5-38.8c-8.9,0-16.4,3.9-22.1,11.8c-5.7,7.8-8.5,17.5-8.5,29.2
			v99.7h-54.9v-102.9c0-25.3-9.3-37.8-28.1-37.8c-9.3,0-16.7,3.6-22.4,11c-5.7,7.5-8.5,17.5-8.5,30.3v99h-54.9v-178.1h54.9v27.8h0.7
			c5.7-9.6,13.5-17.1,23.9-23.2c10.3-6.1,21.4-8.9,33.5-8.9c25.3,0,42.4,11,51.7,33.1c13.5-22.1,33.5-33.1,59.8-33.1
			c38.8,0,58.1,23.9,58.1,71.6v110.8H7184.4z"/>
	</g>
	<g class="st1">
		<path class="st2" d="M7386.3,7177.2h-54.9v-27.1h-0.7c-13.5,21-31.7,31.3-54.5,31.3c-41.3,0-62-24.9-62-74.8v-107.6h54.9v102.6
			c0,25.3,10,37.8,29.9,37.8c10,0,17.8-3.6,23.5-10.3c6.1-6.8,8.9-16.4,8.9-28.1v-101.9h54.9V7177.2z"/>
	</g>
	<g class="st1">
		<path class="st2" d="M7592.2,6999.1l-66.3,178.1h-62.7l-63.1-178.1h58.8l31,109.7c3.6,12.5,5.3,22.8,6.1,31.7h0.7
			c0.7-8.2,2.8-18.5,6.4-30.6l31.7-110.8L7592.2,6999.1L7592.2,6999.1z"/>
	</g>
	<g class="st1">
		<path class="st2" d="M7761.4,7103.8h-116.1c1.8,26,18.2,38.8,48.8,38.8c19.6,0,36.7-4.6,51.7-13.9v39.9
			c-16.4,8.9-37.8,13.2-64.1,13.2c-28.9,0-50.9-7.8-67-23.9c-16-16-23.9-38.1-23.9-66.6c0-29.6,8.5-53.1,25.6-70.2
			c17.1-17.1,38.1-26,63.4-26c26,0,46,7.8,60.2,23.2c14.2,15.3,21.4,36.3,21.4,62.7V7103.8z M7710.2,7070.4
			c0-25.6-10.3-38.1-31-38.1c-8.9,0-16.4,3.6-22.8,11c-6.4,7.5-10.3,16.4-11.8,27.4L7710.2,7070.4L7710.2,7070.4z"/>
	</g>
	<g class="st1">
		<path class="st2" d="M7952,7102.4h-116.1c1.8,26,18.2,38.8,48.8,38.8c19.6,0,36.7-4.6,51.7-13.9v39.5
			c-16.4,8.9-37.8,13.2-64.1,13.2c-28.9,0-50.9-7.8-67-23.9c-16-16-23.9-38.1-23.9-66.6c0-29.6,8.5-53.1,25.6-70.2
			c17.1-17.1,38.1-26,63.4-26c26,0,46,7.8,60.2,23.2c14.2,15.3,21.4,36.3,21.4,62.7V7102.4z M7901.1,7068.2
			c0-25.6-10.3-38.1-31-38.1c-8.9,0-16.4,3.6-22.8,11c-6.4,7.5-10.3,16.4-11.8,27.4L7901.1,7068.2L7901.1,7068.2z"/>
	</g>
</g>
<g id="stop_00000039112142733375363230000012437818983130482315_">
	<g class="st1">
		<path class="st2" d="M6889.8,7404.8v-44.5c8.9,5.3,18.2,9.6,27.1,12.1s17.5,3.9,25.6,3.9c9.6,0,17.5-1.4,23.2-3.9
			s8.5-6.8,8.5-12.1c0-3.6-1.4-6.4-3.9-8.5c-2.5-2.5-5.7-4.3-10-6.1c-4.3-1.8-8.5-3.2-13.2-4.6c-4.6-1.4-9.3-2.9-13.9-4.6
			c-7.1-2.5-13.2-5.7-18.5-8.5c-5.3-3.2-10-6.8-13.5-10.7s-6.4-8.9-8.2-14.2c-1.8-5.3-2.8-11.8-2.8-18.9c0-10,2.1-18.5,6.4-25.6
			c4.3-7.1,10-13.2,17.5-17.8c7.1-4.6,15.7-7.8,24.9-10s18.9-3.2,29.2-3.2c7.8,0,16,0.7,23.9,1.8c8.2,1.1,16,2.8,23.9,5.3v42.4
			c-7.1-3.9-14.2-7.1-22.4-9.3c-7.8-2.1-15.7-3.2-23.5-3.2c-3.6,0-7.1,0.4-10.3,1.1c-3.2,0.7-6.1,1.4-8.5,2.8
			c-2.5,1.4-4.3,2.9-5.7,4.6c-1.4,1.8-2.1,3.9-2.1,6.4c0,3.2,1.1,6.1,3.2,8.2c2.1,2.5,5,4.3,8.2,6.1s7.1,3.2,11,4.6
			c4.3,1.4,8.2,2.8,12.1,3.9c7.5,2.5,13.9,5.3,19.9,8.2c6.1,2.8,11,6.4,15.3,10.7c4.3,3.9,7.5,8.9,9.6,14.2s3.6,12.1,3.6,19.6
			c0,10.7-2.1,19.6-6.8,27.1c-4.6,7.5-10.7,13.5-18.2,18.2c-7.5,4.6-16.4,8.2-26.4,10.3s-20.3,3.2-31,3.2
			C6924.7,7413.8,6906.5,7410.9,6889.8,7404.8z"/>
	</g>
	<g class="st1">
		<path class="st2" d="M7290.2,7407.3c-8.2,4.3-20.3,6.4-36.7,6.4c-38.8,0-58.1-19.9-58.1-60.2V7272h-28.9v-40.6h28.9v-38.5
			l54.9-15.7v54.1h39.9v40.6h-39.5v72c0,18.5,7.5,27.8,22.1,27.8c5.7,0,11.8-1.8,17.8-5L7290.2,7407.3L7290.2,7407.3z"/>
	</g>
	<g class="st1">
		<path class="st2" d="M7529.2,7413.8c-29.6,0-53.1-8.2-70.2-24.9s-25.6-39.2-25.6-67.7c0-29.6,8.9-52.4,26.4-69.1
			c17.5-16.7,41.3-24.9,71.6-24.9c29.6,0,52.7,8.2,69.5,24.9c16.7,16.7,25.3,38.5,25.3,65.9c0,29.6-8.5,53.1-26,70.2
			C7583.3,7405.2,7559.8,7413.8,7529.2,7413.8z M7530.6,7269.1c-12.8,0-23.2,4.6-30.3,13.5s-10.7,21.7-10.7,37.8
			c0,34.2,13.9,51.3,41.3,51.3c26.4,0,39.5-17.5,39.5-52.7C7570.9,7285.5,7557.3,7269.1,7530.6,7269.1z"/>
	</g>
	<g class="st1">
		<path class="st2" d="M7829.8,7388.8h-0.7v102.6h-54.9v-260h54.9v26.7h0.7c13.5-20.7,32.8-31,57.4-31c23.2,0,41,7.8,53.4,23.9
			c12.5,16,18.9,37.4,18.9,64.5c0,29.6-7.5,53.4-22.1,71.6c-14.6,17.8-34.2,27.1-58.4,27.1
			C7857.6,7413.8,7841.2,7405.9,7829.8,7388.8z M7828.1,7316.1v14.2c0,12.5,3.2,22.4,9.6,29.9c6.4,7.8,15,11.8,25.6,11.8
			c12.5,0,22.1-5,29.2-14.6c6.8-9.6,10.3-23.5,10.3-41c0-31.3-12.1-47-36.7-47c-11.4,0-20.3,4.3-27.4,12.8
			S7828.1,7301.9,7828.1,7316.1z"/>
	</g>
</g>
<g id="reel_00000103253184835879530570000017713510762361316021_">
	<path class="st2" d="M6608.4,6957.4c-135.7,0-245.8,110.1-245.8,245.8s110.1,245.8,245.8,245.8c135.7,0,245.8-110.1,245.8-245.8
		S6744.1,6957.4,6608.4,6957.4z M6608.4,7006.6c33.1,0,59.8,26.7,59.8,59.8c0,33.1-26.7,59.8-59.8,59.8c-33.1,0-59.8-26.7-59.8-59.8
		C6548.5,7033.3,6575.2,7006.6,6608.4,7006.6z M6411.4,7167.2c0-33.1,26.7-59.8,59.8-59.8c33.1,0,59.8,26.7,59.8,59.8
		c0,33.1-26.7,59.8-59.8,59.8C6438.1,7227.1,6411.4,7200,6411.4,7167.2z M6527.1,7377.8c-33.1,0-59.8-26.7-59.8-59.8
		c0-33.1,26.7-59.8,59.8-59.8s59.8,26.7,59.8,59.8C6587,7351.1,6560.3,7377.8,6527.1,7377.8z M6608.4,7232.8c-17.1,0-31-13.9-31-31
		s13.9-31,31-31c17.1,0,31,13.9,31,31S6625.5,7232.8,6608.4,7232.8z M6689.6,7377.8c-33.1,0-59.8-26.7-59.8-59.8
		c0-33.1,26.7-59.8,59.8-59.8s59.8,26.7,59.8,59.8C6749.4,7351.1,6722.7,7377.8,6689.6,7377.8z M6745.5,7226.7
		c-33.1,0-59.8-26.7-59.8-59.8s26.7-59.8,59.8-59.8c33.1,0,59.8,26.7,59.8,59.8S6778.6,7226.7,6745.5,7226.7z"/>
</g>
</svg>
