<?xml version="1.0" encoding="utf-8"?>
<!-- Generator: Adobe Illustrator 25.4.1, SVG Export Plug-In . SVG Version: 6.00 Build 0)  -->
<svg version="1.1" id="Layer_1" xmlns="http://www.w3.org/2000/svg" xmlns:xlink="http://www.w3.org/1999/xlink" x="0px" y="0px"
	 viewBox="0 0 1920 1080" style="enable-background:new 0 0 1920 1080;" xml:space="preserve">
<style type="text/css">
	.st0{fill:#181F29;stroke:#000000;stroke-miterlimit:10;}
	.st1{enable-background:new    ;}
	.st2{fill:#263142;}
</style>
<rect x="0" class="st0" width="1920" height="1080"/>
<g id="muvee_00000036953909394977595530000007321621271787447425_">
	<g class="st1">
		<path class="st2" d="M1008.7,533.7h-36.8v-68c0-17.4-6.4-26-19.1-26c-6,0-11,2.6-14.8,7.9c-3.8,5.3-5.7,11.7-5.7,19.6v66.8h-36.8
			v-69c0-16.9-6.2-25.3-18.9-25.3c-6.2,0-11.2,2.4-15,7.4c-3.8,5-5.7,11.7-5.7,20.3v66.3h-36.8V414.3h36.8v18.6h0.5
			c3.8-6.4,9.1-11.5,16-15.5s14.3-6,22.4-6c16.9,0,28.4,7.4,34.6,22.2c9.1-14.8,22.4-22.2,40.1-22.2c26,0,38.9,16,38.9,48v74.2
			H1008.7z"/>
	</g>
	<g class="st1">
		<path class="st2" d="M1144,534.6h-36.8v-18.1h-0.5c-9.1,14.1-21.2,21-36.5,21c-27.7,0-41.5-16.7-41.5-50.1v-72.1h36.8V484
			c0,16.9,6.7,25.3,20,25.3c6.7,0,11.9-2.4,15.8-6.9c4.1-4.5,6-11,6-18.9v-68.3h36.8V534.6z"/>
	</g>
	<g class="st1">
		<path class="st2" d="M1281.9,415.3l-44.4,119.3h-42l-42.2-119.3h39.4l20.8,73.5c2.4,8.4,3.6,15.3,4.1,21.2h0.5
			c0.5-5.5,1.9-12.4,4.3-20.5l21.2-74.2L1281.9,415.3L1281.9,415.3z"/>
	</g>
	<g class="st1">
		<path class="st2" d="M1395.3,485.4h-77.8c1.2,17.4,12.2,26,32.7,26c13.1,0,24.6-3.1,34.6-9.3v26.7c-11,6-25.3,8.8-43,8.8
			c-19.3,0-34.1-5.3-44.9-16c-10.7-10.7-16-25.5-16-44.6c0-19.8,5.7-35.6,17.2-47c11.5-11.5,25.5-17.4,42.5-17.4
			c17.4,0,30.8,5.3,40.3,15.5c9.5,10.3,14.3,24.3,14.3,42V485.4z M1360.9,463c0-17.2-6.9-25.5-20.8-25.5c-6,0-11,2.4-15.3,7.4
			c-4.3,5-6.9,11-7.9,18.4L1360.9,463L1360.9,463z"/>
	</g>
	<g class="st1">
		<path class="st2" d="M1523,484.5h-77.8c1.2,17.4,12.2,26,32.7,26c13.1,0,24.6-3.1,34.6-9.3v26.5c-11,6-25.3,8.8-43,8.8
			c-19.3,0-34.1-5.3-44.9-16c-10.7-10.7-16-25.5-16-44.6c0-19.8,5.7-35.6,17.2-47c11.5-11.5,25.5-17.4,42.5-17.4
			c17.4,0,30.8,5.3,40.3,15.5c9.5,10.3,14.3,24.3,14.3,42V484.5z M1488.9,461.6c0-17.2-6.9-25.5-20.8-25.5c-6,0-11,2.4-15.3,7.4
			s-6.9,11-7.9,18.4L1488.9,461.6L1488.9,461.6z"/>
	</g>
</g>
<g id="stop_00000039112142733375363230000012437818983130482315_">
	<g class="st1">
		<path class="st2" d="M811.3,687.1v-29.8c6,3.6,12.2,6.4,18.1,8.1c6,1.7,11.7,2.6,17.2,2.6c6.4,0,11.7-1,15.5-2.6
			c3.8-1.7,5.7-4.5,5.7-8.1c0-2.4-1-4.3-2.6-5.7c-1.7-1.7-3.8-2.9-6.7-4.1c-2.9-1.2-5.7-2.1-8.8-3.1c-3.1-1-6.2-1.9-9.3-3.1
			c-4.8-1.7-8.8-3.8-12.4-5.7c-3.6-2.1-6.7-4.5-9.1-7.2c-2.4-2.6-4.3-6-5.5-9.5s-1.9-7.9-1.9-12.6c0-6.7,1.4-12.4,4.3-17.2
			c2.9-4.8,6.7-8.8,11.7-11.9c4.8-3.1,10.5-5.3,16.7-6.7c6.2-1.4,12.6-2.1,19.6-2.1c5.3,0,10.7,0.5,16,1.2c5.5,0.7,10.7,1.9,16,3.6
			v28.4c-4.8-2.6-9.5-4.8-15-6.2c-5.3-1.4-10.5-2.1-15.8-2.1c-2.4,0-4.8,0.2-6.9,0.7c-2.1,0.5-4.1,1-5.7,1.9s-2.9,1.9-3.8,3.1
			c-1,1.2-1.4,2.6-1.4,4.3c0,2.1,0.7,4.1,2.1,5.5c1.4,1.7,3.3,2.9,5.5,4.1s4.8,2.1,7.4,3.1c2.9,1,5.5,1.9,8.1,2.6
			c5,1.7,9.3,3.6,13.4,5.5c4.1,1.9,7.4,4.3,10.3,7.2c2.9,2.6,5,6,6.4,9.5c1.4,3.6,2.4,8.1,2.4,13.1c0,7.2-1.4,13.1-4.5,18.1
			c-3.1,5-7.2,9.1-12.2,12.2c-5,3.1-11,5.5-17.7,6.9c-6.7,1.4-13.6,2.1-20.8,2.1C834.7,693.1,822.5,691.2,811.3,687.1z"/>
	</g>
	<g class="st1">
		<path class="st2" d="M1079.5,688.8c-5.5,2.9-13.6,4.3-24.6,4.3c-26,0-38.9-13.4-38.9-40.3v-54.7h-19.3v-27.2h19.3v-25.8l36.8-10.5
			v36.3h26.7v27.2h-26.5v48.2c0,12.4,5,18.6,14.8,18.6c3.8,0,7.9-1.2,11.9-3.3L1079.5,688.8L1079.5,688.8z"/>
	</g>
	<g class="st1">
		<path class="st2" d="M1239.7,693.1c-19.8,0-35.6-5.5-47-16.7c-11.5-11.2-17.2-26.3-17.2-45.3c0-19.8,6-35.1,17.7-46.3
			c11.7-11.2,27.7-16.7,48-16.7c19.8,0,35.3,5.5,46.5,16.7s16.9,25.8,16.9,44.2c0,19.8-5.7,35.6-17.4,47
			C1276,687.4,1260.2,693.1,1239.7,693.1z M1240.6,596.2c-8.6,0-15.5,3.1-20.3,9.1s-7.2,14.6-7.2,25.3c0,22.9,9.3,34.4,27.7,34.4
			c17.7,0,26.5-11.7,26.5-35.3C1267.6,607.2,1258.5,596.2,1240.6,596.2z"/>
	</g>
	<g class="st1">
		<path class="st2" d="M1441.1,676.4h-0.5v68.7h-36.8V570.9h36.8v17.9h0.5c9.1-13.8,22-20.8,38.4-20.8c15.5,0,27.4,5.3,35.8,16
			c8.4,10.7,12.6,25.1,12.6,43.2c0,19.8-5,35.8-14.8,48c-9.8,11.9-22.9,18.1-39.1,18.1C1459.7,693.1,1448.8,687.8,1441.1,676.4z
			 M1439.9,627.7v9.5c0,8.4,2.1,15,6.4,20c4.3,5.3,10,7.9,17.2,7.9c8.4,0,14.8-3.3,19.6-9.8c4.5-6.4,6.9-15.8,6.9-27.4
			c0-21-8.1-31.5-24.6-31.5c-7.6,0-13.6,2.9-18.4,8.6C1442.3,610.7,1439.9,618.1,1439.9,627.7z"/>
	</g>
</g>
<g id="reel_00000103253184835879530570000017713510762361316021_">
	<path class="st2" d="M622.7,387.4c-90.9,0-164.7,73.7-164.7,164.7s73.7,164.7,164.7,164.7S787.4,643,787.4,552
		S713.7,387.4,622.7,387.4z M622.7,420.3c22.2,0,40.1,17.9,40.1,40.1s-17.9,40.1-40.1,40.1c-22.2,0-40.1-17.9-40.1-40.1
		C582.6,438.2,600.5,420.3,622.7,420.3z M490.8,527.9c0-22.2,17.9-40.1,40.1-40.1s40.1,17.9,40.1,40.1c0,22.2-17.9,40.1-40.1,40.1
		C508.7,568,490.8,549.9,490.8,527.9z M568.3,669c-22.2,0-40.1-17.9-40.1-40.1c0-22.2,17.9-40.1,40.1-40.1s40.1,17.9,40.1,40.1
		C608.4,651.1,590.5,669,568.3,669z M622.7,571.8c-11.5,0-20.8-9.3-20.8-20.8c0-11.5,9.3-20.8,20.8-20.8c11.5,0,20.8,9.3,20.8,20.8
		S634.2,571.8,622.7,571.8z M677.2,669c-22.2,0-40.1-17.9-40.1-40.1c0-22.2,17.9-40.1,40.1-40.1c22.2,0,40.1,17.9,40.1,40.1
		C717.3,651.1,699.4,669,677.2,669z M714.6,567.8c-22.2,0-40.1-17.9-40.1-40.1c0-22.2,17.9-40.1,40.1-40.1s40.1,17.9,40.1,40.1
		C754.7,549.9,736.8,567.8,714.6,567.8z"/>
</g>
</svg>
