<?xml version="1.0" encoding="utf-8"?>
<!-- Generator: Adobe Illustrator 27.0.0, SVG Export Plug-In . SVG Version: 6.00 Build 0)  -->
<svg version="1.1" id="Layer_1" xmlns="http://www.w3.org/2000/svg" xmlns:xlink="http://www.w3.org/1999/xlink" x="0px" y="0px"
	 viewBox="0 0 595.3 841.9" style="enable-background:new 0 0 595.3 841.9;" xml:space="preserve">
<style type="text/css">
	.st0{fill:#181F29;stroke:#000000;stroke-miterlimit:10;}
	.st1{enable-background:new    ;}
	.st2{fill:#263142;}
</style>
<rect y="0" class="st0" width="595.3" height="841.9"/>
<g id="muvee_00000036953909394977595530000007321621271787447425_">
	<g class="st1">
		<path class="st2" d="M287.4,417.4H272v-28.5c0-7.3-2.7-10.9-8-10.9c-2.5,0-4.6,1.1-6.2,3.3c-1.6,2.2-2.4,4.9-2.4,8.2v28H240v-28.9
			c0-7.1-2.6-10.6-7.9-10.6c-2.6,0-4.7,1-6.3,3.1c-1.6,2.1-2.4,4.9-2.4,8.5v27.8H208v-50h15.4v7.8h0.2c1.6-2.7,3.8-4.8,6.7-6.5
			c2.9-1.7,6-2.5,9.4-2.5c7.1,0,11.9,3.1,14.5,9.3c3.8-6.2,9.4-9.3,16.8-9.3c10.9,0,16.3,6.7,16.3,20.1v31.1H287.4z"/>
	</g>
	<g class="st1">
		<path class="st2" d="M344.1,417.8h-15.4v-7.6h-0.2c-3.8,5.9-8.9,8.8-15.3,8.8c-11.6,0-17.4-7-17.4-21v-30.2h15.4v28.8
			c0,7.1,2.8,10.6,8.4,10.6c2.8,0,5-1,6.6-2.9c1.7-1.9,2.5-4.6,2.5-7.9v-28.6h15.4V417.8z"/>
	</g>
	<g class="st1">
		<path class="st2" d="M401.9,367.8l-18.6,50h-17.6l-17.7-50h16.5l8.7,30.8c1,3.5,1.5,6.4,1.7,8.9h0.2c0.2-2.3,0.8-5.2,1.8-8.6
			l8.9-31.1H401.9z"/>
	</g>
	<g class="st1">
		<path class="st2" d="M449.4,397.2h-32.6c0.5,7.3,5.1,10.9,13.7,10.9c5.5,0,10.3-1.3,14.5-3.9v11.2c-4.6,2.5-10.6,3.7-18,3.7
			c-8.1,0-14.3-2.2-18.8-6.7s-6.7-10.7-6.7-18.7c0-8.3,2.4-14.9,7.2-19.7c4.8-4.8,10.7-7.3,17.8-7.3c7.3,0,12.9,2.2,16.9,6.5
			c4,4.3,6,10.2,6,17.6V397.2z M435,387.8c0-7.2-2.9-10.7-8.7-10.7c-2.5,0-4.6,1-6.4,3.1c-1.8,2.1-2.9,4.6-3.3,7.7L435,387.8
			L435,387.8z"/>
	</g>
	<g class="st1">
		<path class="st2" d="M502.9,396.8h-32.6c0.5,7.3,5.1,10.9,13.7,10.9c5.5,0,10.3-1.3,14.5-3.9v11.1c-4.6,2.5-10.6,3.7-18,3.7
			c-8.1,0-14.3-2.2-18.8-6.7s-6.7-10.7-6.7-18.7c0-8.3,2.4-14.9,7.2-19.7c4.8-4.8,10.7-7.3,17.8-7.3c7.3,0,12.9,2.2,16.9,6.5
			c4,4.3,6,10.2,6,17.6V396.8z M488.6,387.2c0-7.2-2.9-10.7-8.7-10.7c-2.5,0-4.6,1-6.4,3.1c-1.8,2.1-2.9,4.6-3.3,7.7L488.6,387.2
			L488.6,387.2z"/>
	</g>
</g>
<g id="stop_00000039112142733375363230000012437818983130482315_">
	<g class="st1">
		<path class="st2" d="M204.7,481.7v-12.5c2.5,1.5,5.1,2.7,7.6,3.4c2.5,0.7,4.9,1.1,7.2,1.1c2.7,0,4.9-0.4,6.5-1.1s2.4-1.9,2.4-3.4
			c0-1-0.4-1.8-1.1-2.4c-0.7-0.7-1.6-1.2-2.8-1.7c-1.2-0.5-2.4-0.9-3.7-1.3c-1.3-0.4-2.6-0.8-3.9-1.3c-2-0.7-3.7-1.6-5.2-2.4
			c-1.5-0.9-2.8-1.9-3.8-3s-1.8-2.5-2.3-4s-0.8-3.3-0.8-5.3c0-2.8,0.6-5.2,1.8-7.2c1.2-2,2.8-3.7,4.9-5c2-1.3,4.4-2.2,7-2.8
			s5.3-0.9,8.2-0.9c2.2,0,4.5,0.2,6.7,0.5c2.3,0.3,4.5,0.8,6.7,1.5v11.9c-2-1.1-4-2-6.3-2.6c-2.2-0.6-4.4-0.9-6.6-0.9
			c-1,0-2,0.1-2.9,0.3s-1.7,0.4-2.4,0.8c-0.7,0.4-1.2,0.8-1.6,1.3c-0.4,0.5-0.6,1.1-0.6,1.8c0,0.9,0.3,1.7,0.9,2.3
			c0.6,0.7,1.4,1.2,2.3,1.7s2,0.9,3.1,1.3c1.2,0.4,2.3,0.8,3.4,1.1c2.1,0.7,3.9,1.5,5.6,2.3c1.7,0.8,3.1,1.8,4.3,3
			c1.2,1.1,2.1,2.5,2.7,4c0.6,1.5,1,3.4,1,5.5c0,3-0.6,5.5-1.9,7.6s-3,3.8-5.1,5.1c-2.1,1.3-4.6,2.3-7.4,2.9
			c-2.8,0.6-5.7,0.9-8.7,0.9C214.5,484.2,209.4,483.4,204.7,481.7z"/>
	</g>
	<g class="st1">
		<path class="st2" d="M317.1,482.4c-2.3,1.2-5.7,1.8-10.3,1.8c-10.9,0-16.3-5.6-16.3-16.9v-22.9h-8.1V433h8.1v-10.8l15.4-4.4V433
			h11.2v11.4H306v20.2c0,5.2,2.1,7.8,6.2,7.8c1.6,0,3.3-0.5,5-1.4L317.1,482.4L317.1,482.4z"/>
	</g>
	<g class="st1">
		<path class="st2" d="M384.2,484.2c-8.3,0-14.9-2.3-19.7-7c-4.8-4.7-7.2-11-7.2-19c0-8.3,2.5-14.7,7.4-19.4s11.6-7,20.1-7
			c8.3,0,14.8,2.3,19.5,7c4.7,4.7,7.1,10.8,7.1,18.5c0,8.3-2.4,14.9-7.3,19.7C399.4,481.8,392.8,484.2,384.2,484.2z M384.6,443.6
			c-3.6,0-6.5,1.3-8.5,3.8s-3,6.1-3,10.6c0,9.6,3.9,14.4,11.6,14.4c7.4,0,11.1-4.9,11.1-14.8C395.9,448.2,392.1,443.6,384.6,443.6z"
			/>
	</g>
	<g class="st1">
		<path class="st2" d="M468.6,477.2h-0.2v28.8H453v-73h15.4v7.5h0.2c3.8-5.8,9.2-8.7,16.1-8.7c6.5,0,11.5,2.2,15,6.7
			s5.3,10.5,5.3,18.1c0,8.3-2.1,15-6.2,20.1c-4.1,5-9.6,7.6-16.4,7.6C476.4,484.2,471.8,482,468.6,477.2z M468.1,456.8v4
			c0,3.5,0.9,6.3,2.7,8.4c1.8,2.2,4.2,3.3,7.2,3.3c3.5,0,6.2-1.4,8.2-4.1c1.9-2.7,2.9-6.6,2.9-11.5c0-8.8-3.4-13.2-10.3-13.2
			c-3.2,0-5.7,1.2-7.7,3.6S468.1,452.8,468.1,456.8z"/>
	</g>
</g>
<g id="reel_00000103253184835879530570000017713510762361316021_">
	<path class="st2" d="M125.7,356.1c-38.1,0-69,30.9-69,69s30.9,69,69,69s69-30.9,69-69S163.8,356.1,125.7,356.1z M125.7,369.9
		c9.3,0,16.8,7.5,16.8,16.8c0,9.3-7.5,16.8-16.8,16.8s-16.8-7.5-16.8-16.8C108.9,377.4,116.4,369.9,125.7,369.9z M70.4,415
		c0-9.3,7.5-16.8,16.8-16.8S104,405.7,104,415c0,9.3-7.5,16.8-16.8,16.8S70.4,424.2,70.4,415z M102.9,474.1
		c-9.3,0-16.8-7.5-16.8-16.8c0-9.3,7.5-16.8,16.8-16.8s16.8,7.5,16.8,16.8C119.7,466.6,112.2,474.1,102.9,474.1z M125.7,433.4
		c-4.8,0-8.7-3.9-8.7-8.7c0-4.8,3.9-8.7,8.7-8.7s8.7,3.9,8.7,8.7C134.4,429.5,130.5,433.4,125.7,433.4z M148.5,474.1
		c-9.3,0-16.8-7.5-16.8-16.8c0-9.3,7.5-16.8,16.8-16.8c9.3,0,16.8,7.5,16.8,16.8C165.3,466.6,157.8,474.1,148.5,474.1z M164.2,431.7
		c-9.3,0-16.8-7.5-16.8-16.8c0-9.3,7.5-16.8,16.8-16.8c9.3,0,16.8,7.5,16.8,16.8C181,424.2,173.5,431.7,164.2,431.7z"/>
</g>
</svg>
