<?xml version="1.0" encoding="utf-8"?>
<!-- Generator: Adobe Illustrator 27.0.0, SVG Export Plug-In . SVG Version: 6.00 Build 0)  -->
<svg version="1.1" id="Layer_1" xmlns="http://www.w3.org/2000/svg" xmlns:xlink="http://www.w3.org/1999/xlink" x="0px" y="0px"
	 viewBox="0 0 14400 14400" style="enable-background:new 0 0 14400 14400;" xml:space="preserve">
<style type="text/css">
	.st0{fill:#0C80D1;}
</style>
<g id="reel">
	<path class="st0" d="M7199.5,5953.5c-688,0-1246,558-1246,1246s558,1246,1246,1246s1246-558,1246-1246S7887.5,5953.5,7199.5,5953.5
		z M7199.5,6200.9c167.9,0,303.4,135.4,303.4,303.4s-135.4,303.4-303.4,303.4s-303.4-135.4-303.4-303.4S7031.6,6200.9,7199.5,6200.9
		z M6200.9,7015.3c0-167.9,135.4-303.4,303.4-303.4c167.9,0,303.4,135.4,303.4,303.4s-135.4,303.4-303.4,303.4
		C6336.3,7318.7,6200.9,7181.4,6200.9,7015.3z M6787.8,8082.5c-167.9,0-303.4-135.4-303.4-303.4s135.4-303.4,303.4-303.4
		c167.9,0,303.4,135.4,303.4,303.4S6955.7,8082.5,6787.8,8082.5z M7199.5,7347.6c-86.7,0-157.1-70.4-157.1-157.1
		c0-86.7,70.4-157.1,157.1-157.1s157.1,70.4,157.1,157.1C7356.6,7277.1,7286.2,7347.6,7199.5,7347.6z M7611.2,8082.5
		c-167.9,0-303.4-135.4-303.4-303.4s135.4-303.4,303.4-303.4s303.4,135.4,303.4,303.4C7914.6,7947.1,7779.2,8082.5,7611.2,8082.5z
		 M7894.7,7316.9c-167.9,0-303.4-135.4-303.4-303.4s135.4-303.4,303.4-303.4s303.4,135.4,303.4,303.4S8062.7,7316.9,7894.7,7316.9z"
		/>
</g>
</svg>
