<?xml version="1.0" encoding="utf-8"?>
<!-- Generator: Adobe Illustrator 27.0.0, SVG Export Plug-In . SVG Version: 6.00 Build 0)  -->
<svg version="1.1" id="Layer_1" xmlns="http://www.w3.org/2000/svg" xmlns:xlink="http://www.w3.org/1999/xlink" x="0px" y="0px"
	 viewBox="0 0 483.7 193.7" style="enable-background:new 0 0 483.7 193.7;" xml:space="preserve">
<style type="text/css">
	.st0{enable-background:new    ;}
	.st1{fill:#1AC188;}
	.st2{fill:#DD3652;}
	.st3{fill:#0C80D1;}
</style>
<g id="muvee">
	<g class="st0">
		<path class="st1" d="M245,90h-15.4V61.5c0-7.3-2.7-10.9-8-10.9c-2.5,0-4.6,1.1-6.2,3.3c-1.6,2.2-2.4,4.9-2.4,8.2v28h-15.4V61.2
			c0-7.1-2.6-10.6-7.9-10.6c-2.6,0-4.7,1-6.3,3.1s-2.4,4.9-2.4,8.5V90h-15.4V40H181v7.8h0.2c1.6-2.7,3.8-4.8,6.7-6.5s6-2.5,9.4-2.5
			c7.1,0,11.9,3.1,14.5,9.3c3.8-6.2,9.4-9.3,16.8-9.3c10.9,0,16.3,6.7,16.3,20.1V90H245z"/>
	</g>
	<g class="st0">
		<path class="st1" d="M301.8,90.4h-15.4v-7.6h-0.2c-3.8,5.9-8.9,8.8-15.3,8.8c-11.6,0-17.4-7-17.4-21V40.4h15.4v28.8
			c0,7.1,2.8,10.6,8.4,10.6c2.8,0,5-1,6.6-2.9c1.7-1.9,2.5-4.6,2.5-7.9V40.4h15.4V90.4z"/>
	</g>
	<g class="st0">
		<path class="st1" d="M359.5,40.4l-18.6,50h-17.6l-17.7-50h16.5l8.7,30.8c1,3.5,1.5,6.4,1.7,8.9h0.2c0.2-2.3,0.8-5.2,1.8-8.6
			l8.9-31.1H359.5z"/>
	</g>
	<g class="st0">
		<path class="st1" d="M407,69.8h-32.6c0.5,7.3,5.1,10.9,13.7,10.9c5.5,0,10.3-1.3,14.5-3.9V88c-4.6,2.5-10.6,3.7-18,3.7
			c-8.1,0-14.3-2.2-18.8-6.7s-6.7-10.7-6.7-18.7c0-8.3,2.4-14.9,7.2-19.7c4.8-4.8,10.7-7.3,17.8-7.3c7.3,0,12.9,2.2,16.9,6.5
			s6,10.2,6,17.6V69.8z M392.6,60.4c0-7.2-2.9-10.7-8.7-10.7c-2.5,0-4.6,1-6.4,3.1s-2.9,4.6-3.3,7.7L392.6,60.4L392.6,60.4z"/>
	</g>
	<g class="st0">
		<path class="st1" d="M460.5,69.4h-32.6c0.5,7.3,5.1,10.9,13.7,10.9c5.5,0,10.3-1.3,14.5-3.9v11.1c-4.6,2.5-10.6,3.7-18,3.7
			c-8.1,0-14.3-2.2-18.8-6.7s-6.7-10.7-6.7-18.7c0-8.3,2.4-14.9,7.2-19.7c4.8-4.8,10.7-7.3,17.8-7.3c7.3,0,12.9,2.2,16.9,6.5
			s6,10.2,6,17.6V69.4z M446.2,59.9c0-7.2-2.9-10.7-8.7-10.7c-2.5,0-4.6,1-6.4,3.1s-2.9,4.6-3.3,7.7L446.2,59.9L446.2,59.9z"/>
	</g>
</g>
<g id="stop">
	<g class="st0">
		<path class="st2" d="M162.3,154.3v-12.5c2.5,1.5,5.1,2.7,7.6,3.4s4.9,1.1,7.2,1.1c2.7,0,4.9-0.4,6.5-1.1c1.6-0.7,2.4-1.9,2.4-3.4
			c0-1-0.4-1.8-1.1-2.4c-0.7-0.7-1.6-1.2-2.8-1.7s-2.4-0.9-3.7-1.3c-1.3-0.4-2.6-0.8-3.9-1.3c-2-0.7-3.7-1.6-5.2-2.4
			c-1.5-0.9-2.8-1.9-3.8-3s-1.8-2.5-2.3-4s-0.8-3.3-0.8-5.3c0-2.8,0.6-5.2,1.8-7.2s2.8-3.7,4.9-5c2-1.3,4.4-2.2,7-2.8
			c2.6-0.6,5.3-0.9,8.2-0.9c2.2,0,4.5,0.2,6.7,0.5c2.3,0.3,4.5,0.8,6.7,1.5v11.9c-2-1.1-4-2-6.3-2.6c-2.2-0.6-4.4-0.9-6.6-0.9
			c-1,0-2,0.1-2.9,0.3c-0.9,0.2-1.7,0.4-2.4,0.8s-1.2,0.8-1.6,1.3s-0.6,1.1-0.6,1.8c0,0.9,0.3,1.7,0.9,2.3c0.6,0.7,1.4,1.2,2.3,1.7
			c0.9,0.5,2,0.9,3.1,1.3c1.2,0.4,2.3,0.8,3.4,1.1c2.1,0.7,3.9,1.5,5.6,2.3c1.7,0.8,3.1,1.8,4.3,3c1.2,1.1,2.1,2.5,2.7,4
			c0.6,1.5,1,3.4,1,5.5c0,3-0.6,5.5-1.9,7.6c-1.3,2.1-3,3.8-5.1,5.1s-4.6,2.3-7.4,2.9s-5.7,0.9-8.7,0.9
			C172.1,156.9,167,156,162.3,154.3z"/>
	</g>
	<g class="st0">
		<path class="st2" d="M274.8,155c-2.3,1.2-5.7,1.8-10.3,1.8c-10.9,0-16.3-5.6-16.3-16.9V117h-8.1v-11.4h8.1V94.8l15.4-4.4v15.2
			h11.2V117h-11.2v20.2c0,5.2,2.1,7.8,6.2,7.8c1.6,0,3.3-0.5,5-1.4L274.8,155L274.8,155z"/>
	</g>
	<g class="st0">
		<path class="st2" d="M341.9,156.9c-8.3,0-14.9-2.3-19.7-7c-4.8-4.7-7.2-11-7.2-19c0-8.3,2.5-14.7,7.4-19.4c4.9-4.7,11.6-7,20.1-7
			c8.3,0,14.8,2.3,19.5,7s7.1,10.8,7.1,18.5c0,8.3-2.4,14.9-7.3,19.7C357,154.4,350.4,156.9,341.9,156.9z M342.3,116.2
			c-3.6,0-6.5,1.3-8.5,3.8s-3,6.1-3,10.6c0,9.6,3.9,14.4,11.6,14.4c7.4,0,11.1-4.9,11.1-14.8C353.5,120.9,349.8,116.2,342.3,116.2z"
			/>
	</g>
	<g class="st0">
		<path class="st2" d="M426.2,149.9H426v28.8h-15.4v-73H426v7.5h0.2c3.8-5.8,9.2-8.7,16.1-8.7c6.5,0,11.5,2.2,15,6.7
			s5.3,10.5,5.3,18.1c0,8.3-2.1,15-6.2,20.1c-4.1,5-9.6,7.6-16.4,7.6C434,156.9,429.4,154.6,426.2,149.9z M425.8,129.4v4
			c0,3.5,0.9,6.3,2.7,8.4c1.8,2.2,4.2,3.3,7.2,3.3c3.5,0,6.2-1.4,8.2-4.1c1.9-2.7,2.9-6.6,2.9-11.5c0-8.8-3.4-13.2-10.3-13.2
			c-3.2,0-5.7,1.2-7.7,3.6S425.8,125.4,425.8,129.4z"/>
	</g>
</g>
<g id="reel">
	<path class="st3" d="M83.3,28.8c-38.1,0-69,30.9-69,69s30.9,69,69,69s69-30.9,69-69S121.4,28.8,83.3,28.8z M83.3,42.5
		c9.3,0,16.8,7.5,16.8,16.8s-7.5,16.8-16.8,16.8s-16.8-7.5-16.8-16.8S74,42.5,83.3,42.5z M28,87.6c0-9.3,7.5-16.8,16.8-16.8
		s16.8,7.5,16.8,16.8s-7.5,16.8-16.8,16.8S28,96.8,28,87.6z M60.5,146.7c-9.3,0-16.8-7.5-16.8-16.8s7.5-16.8,16.8-16.8
		s16.8,7.5,16.8,16.8S69.8,146.7,60.5,146.7z M83.3,106c-4.8,0-8.7-3.9-8.7-8.7s3.9-8.7,8.7-8.7c4.8,0,8.7,3.9,8.7,8.7
		S88.1,106,83.3,106z M106.1,146.7c-9.3,0-16.8-7.5-16.8-16.8s7.5-16.8,16.8-16.8s16.8,7.5,16.8,16.8
		C122.9,139.2,115.4,146.7,106.1,146.7z M121.8,104.3c-9.3,0-16.8-7.5-16.8-16.8s7.5-16.8,16.8-16.8s16.8,7.5,16.8,16.8
		S131.1,104.3,121.8,104.3z"/>
</g>
</svg>
